<?xml version="1.0" encoding="utf-8"?>
<!-- Generator: Adobe Illustrator 26.0.1, SVG Export Plug-In . SVG Version: 6.00 Build 0)  -->
<svg version="1.1" id="Layer_1" xmlns="http://www.w3.org/2000/svg" xmlns:xlink="http://www.w3.org/1999/xlink" x="0px" y="0px"
	 viewBox="0 0 198 198" style="enable-background:new 0 0 198 198;" xml:space="preserve">
<style type="text/css">
	.st0{fill:#00CB75;}
	.st1{fill:#414644;}
</style>
<g>
	<path class="st0" d="M147.9,196c27,0,49-22,49-49s-22-49-49-49s-49,22-49,49C98.9,174,120.9,196,147.9,196z"/>
	<path class="st1" d="M162.6,68.7c19,0,34.3-15.4,34.3-34.3S181.5,0,162.6,0s-34.3,15.4-34.3,34.3C128.2,53.3,143.6,68.7,162.6,68.7
		z"/>
	<path class="st1" d="M35.6,195.6c19,0,34.3-15.4,34.3-34.3S54.6,127,35.6,127S1.3,142.4,1.3,161.3C1.4,180.3,16.6,195.6,35.6,195.6
		z"/>
	<path class="st0" d="M50.1,98c27,0,49-22,49-49s-22-49-49-49s-49,22.2-49,49.2S23.1,98,50.1,98z"/>
</g>
</svg>
