<?xml version="1.0" encoding="utf-8"?>
<!-- Generator: Adobe Illustrator 26.0.1, SVG Export Plug-In . SVG Version: 6.00 Build 0)  -->
<svg version="1.1" id="Layer_1" xmlns="http://www.w3.org/2000/svg" xmlns:xlink="http://www.w3.org/1999/xlink" x="0px" y="0px"
	 viewBox="0 0 117.2 117.2" style="enable-background:new 0 0 117.2 117.2;" xml:space="preserve">
<style type="text/css">
	.st0{opacity:0.5;fill:#BCBFCE;enable-background:new    ;}
	.st1{fill:url(#SVGID_1_);}
	.st2{fill:url(#SVGID_00000013170769565431398940000016805457637040681347_);}
	.st3{fill:url(#SVGID_00000008119130308707901200000012351586597112810902_);}
	.st4{fill:url(#SVGID_00000024723821436949379040000000362895163046806149_);}
	.st5{opacity:0.5;fill:#AFB6E5;enable-background:new    ;}
	.st6{fill:url(#SVGID_00000170258575242677342000000001256397151622005896_);}
	.st7{fill:url(#SVGID_00000102516027829013563310000017073173425489116602_);}
	.st8{opacity:0.3;fill:url(#SVGID_00000004526338518103909840000007080236151156173975_);enable-background:new    ;}
	.st9{opacity:0.5;fill:url(#SVGID_00000129906091915208568620000010304484821319228050_);enable-background:new    ;}
	.st10{fill:url(#SVGID_00000150789769133734580590000002668337316236770441_);}
	.st11{fill:url(#SVGID_00000097485501761901668700000011640181494390814142_);}
	.st12{fill:url(#SVGID_00000150065435574583737560000017940108845202353041_);}
	.st13{fill:url(#SVGID_00000005971940911298680160000000974687954207501220_);}
	.st14{fill:url(#SVGID_00000052811906622612452720000016642215382579897273_);}
	.st15{fill:url(#SVGID_00000180339995000426181990000014020517201266857857_);}
	.st16{fill:url(#SVGID_00000036937389036798219890000007684014460174405801_);}
	.st17{fill:url(#SVGID_00000023996858406500414330000003088491986346540421_);}
	.st18{fill:url(#SVGID_00000169537070686400555970000000520397864278558132_);}
	.st19{fill:url(#SVGID_00000002370564664976757620000017353518062459828373_);}
	.st20{fill:url(#SVGID_00000092430393694520407710000003609074786441625487_);}
	.st21{fill:url(#SVGID_00000000915295156619779040000014689506066283757446_);}
</style>
<path class="st0" d="M15,106.3c-2.6-0.9-4.7-2.9-5-5.1c-0.5-4.2,5.5-8.7,9.3-7c2.8,1.2,3.3,5.4,3.3,5.8c0-1.7,0.4-8.2,5.3-12.7
	c6.5-5.9,18.8-6.3,22.9,0.2c3.5,5.6-0.7,13.5-1,14.1c2.1-4.7,5.9-6.8,8.1-5.8c1.9,0.8,2.8,3.6,2.3,5.7c-0.7,3.2-4.9,5.7-10.2,5
	C38.3,106.5,26.6,106.4,15,106.3z"/>
<path class="st0" d="M76.1,91.1c-2.1-0.7-3.7-2.3-4-4c-0.4-3.3,4.3-6.9,7.3-5.6c2.2,1,2.6,4.3,2.6,4.6c0-1.4,0.3-6.5,4.2-10
	c5.1-4.7,14.8-5,18.1,0.2c2.8,4.4-0.6,10.7-0.8,11.2c1.6-3.7,4.7-5.3,6.4-4.6c1.5,0.6,2.2,2.8,1.8,4.5c-0.6,2.5-3.9,4.5-8,4
	C94.5,91.2,85.3,91.2,76.1,91.1z"/>
<path class="st0" d="M37.7,73.1c2.1-0.7,3.7-2.3,4-4c0.4-3.3-4.3-6.9-7.3-5.6c-2.2,1-2.6,4.3-2.6,4.6c0-1.4-0.3-6.5-4.2-10
	c-5.1-4.7-14.8-5-18.1,0.2c-2.8,4.4,0.6,10.7,0.8,11.2c-1.6-3.7-4.7-5.3-6.4-4.6c-1.5,0.6-2.2,2.8-1.8,4.5c0.6,2.5,3.9,4.5,8,4
	C19.3,73.2,28.5,73.1,37.7,73.1z"/>
<path class="st0" d="M93.5,103.3c0.8-0.3,1.4-0.9,1.5-1.6c0.2-1.3-1.7-2.7-2.8-2.2c-0.9,0.4-1,1.7-1,1.8c0-0.5-0.1-2.5-1.6-3.9
	c-2-1.8-5.8-1.9-7,0.1c-1.1,1.7,0.2,4.1,0.3,4.3c-0.6-1.5-1.8-2.1-2.5-1.8c-0.6,0.2-0.9,1.1-0.7,1.7c0.2,1,1.5,1.7,3.1,1.5
	C86.4,103.3,90,103.3,93.5,103.3z"/>
<path class="st0" d="M90.5,71.1c0.8-0.3,1.4-0.9,1.5-1.6c0.2-1.3-1.7-2.7-2.8-2.2c-0.9,0.4-1,1.7-1,1.8c0-0.5-0.1-2.5-1.6-3.9
	c-2-1.8-5.8-1.9-7,0.1c-1.1,1.7,0.2,4.1,0.3,4.3c-0.6-1.5-1.8-2.1-2.5-1.8c-0.6,0.2-0.9,1.1-0.7,1.7c0.2,1,1.5,1.7,3.1,1.5
	C83.3,71.2,86.9,71.1,90.5,71.1z"/>
<g>
	<g id="Layer_2_00000140015522691653104670000004240964282738377600_">
		<g id="Layer_1-2">
			
				<linearGradient id="SVGID_1_" gradientUnits="userSpaceOnUse" x1="1250.6835" y1="2259.2039" x2="1245.9967" y2="2283.2341" gradientTransform="matrix(0.88 -0.48 -0.48 -0.88 67.6124 2676.7896)">
				<stop  offset="1.000000e-02" style="stop-color:#BB6DF3"/>
				<stop  offset="0.43" style="stop-color:#5277F7"/>
				<stop  offset="1" style="stop-color:#61C2F2"/>
			</linearGradient>
			<path class="st1" d="M71.6,82.8l10,5.3v-6.7c0-0.8-0.2-1.7-0.5-2.4l-4.3-8.2c-0.9-1.8-2.9-2.1-5.1-0.8l0,0L71.6,82.8z"/>
			
				<linearGradient id="SVGID_00000075856706214796478630000015774103436596849550_" gradientUnits="userSpaceOnUse" x1="211.6217" y1="207.5874" x2="244.2225" y2="214.8967" gradientTransform="matrix(-1 0 0 -1 272.14 290.23)">
				<stop  offset="1.000000e-02" style="stop-color:#BB6DF3"/>
				<stop  offset="0.43" style="stop-color:#5277F7"/>
				<stop  offset="1" style="stop-color:#61C2F2"/>
			</linearGradient>
			<path style="fill:url(#SVGID_00000075856706214796478630000015774103436596849550_);" d="M49,82.8l-9.9,5.4v-6.7
				c0-0.8,0.2-1.7,0.5-2.4l4.3-8.2c0.9-1.8,2.9-2.1,5.1-0.8l0,0L49,82.8z"/>
			
				<linearGradient id="SVGID_00000155851365401911161590000003485762045592169634_" gradientUnits="userSpaceOnUse" x1="1228.9398" y1="2268.1602" x2="1225.507" y2="2261.967" gradientTransform="matrix(0.88 -0.48 -0.48 -0.88 67.6124 2676.7896)">
				<stop  offset="1.000000e-02" style="stop-color:#273B98"/>
				<stop  offset="0.23" style="stop-color:#2F2BA2"/>
				<stop  offset="0.4" style="stop-color:#361CAC"/>
				<stop  offset="0.77" style="stop-color:#440B89"/>
				<stop  offset="1" style="stop-color:#4E0070"/>
			</linearGradient>
			<path style="fill:url(#SVGID_00000155851365401911161590000003485762045592169634_);" d="M65.1,97.7h-9.5V99l0,0l0,0
				c0,1.5,2.1,2.8,4.8,2.8c2.6,0,4.7-1.2,4.7-2.8l0,0l0,0V97.7z"/>
			
				<linearGradient id="SVGID_00000111912058134557353820000011333641584022637468_" gradientUnits="userSpaceOnUse" x1="-486.5489" y1="197.7828" x2="-464.2237" y2="197.7828" gradientTransform="matrix(1 -1.570796e-03 -1.570796e-03 -1 535.9563 289.5432)">
				<stop  offset="0" style="stop-color:#676FAE"/>
				<stop  offset="5.000000e-02" style="stop-color:#757CB8"/>
				<stop  offset="0.11" style="stop-color:#8B92C8"/>
				<stop  offset="0.23" style="stop-color:#AFB6E5"/>
				<stop  offset="0.35" style="stop-color:#949BCF"/>
				<stop  offset="0.38" style="stop-color:#8D94C9"/>
				<stop  offset="0.55" style="stop-color:#5E67A8"/>
				<stop  offset="0.61" style="stop-color:#616AAA"/>
				<stop  offset="0.67" style="stop-color:#6C75B2"/>
				<stop  offset="0.72" style="stop-color:#7E86BF"/>
				<stop  offset="0.78" style="stop-color:#979ED1"/>
				<stop  offset="0.78" style="stop-color:#979ED1"/>
				<stop  offset="1" style="stop-color:#7179B5"/>
			</linearGradient>
			<path style="fill:url(#SVGID_00000111912058134557353820000011333641584022637468_);" d="M71.7,85.8l-22.7,0v6.7l0,0
				c0,0,0,0.1,0,0.1c0,3.6,5.1,6.6,11.4,6.6s11.3-3,11.3-6.6c0,0,0-0.1,0-0.1l0,0L71.7,85.8z"/>
			<path class="st5" d="M71.7,86l-22.7,0v5.4l0,0c0,0,0,0.1,0,0.1c0,2.9,5.1,5.3,11.4,5.3c6.3,0,11.3-2.4,11.3-5.3c0,0,0-0.1,0-0.1
				l0,0L71.7,86z"/>
			
				<linearGradient id="SVGID_00000143591440991139076320000002827503202402284726_" gradientUnits="userSpaceOnUse" x1="-493.1776" y1="232.527" x2="-457.6867" y2="232.527" gradientTransform="matrix(1 -1.570796e-03 -1.570796e-03 -1 535.9563 289.5432)">
				<stop  offset="1.000000e-02" style="stop-color:#CED3F4"/>
				<stop  offset="7.000000e-02" style="stop-color:#D8DCF6"/>
				<stop  offset="0.16" style="stop-color:#F3F4FC"/>
				<stop  offset="0.2" style="stop-color:#FFFFFF"/>
				<stop  offset="0.27" style="stop-color:#F5F7FF"/>
				<stop  offset="0.36" style="stop-color:#E5E9FF"/>
				<stop  offset="0.39" style="stop-color:#DBDFFA"/>
				<stop  offset="0.47" style="stop-color:#C3C9EE"/>
				<stop  offset="0.55" style="stop-color:#B4BBE7"/>
				<stop  offset="0.61" style="stop-color:#AFB6E5"/>
				<stop  offset="0.78" style="stop-color:#BAC0EA"/>
				<stop  offset="1" style="stop-color:#CED3F4"/>
			</linearGradient>
			<path style="fill:url(#SVGID_00000143591440991139076320000002827503202402284726_);" d="M78.1,63.5c1.2-9.6-1.2-19.4-6.6-27.4
				c-0.2-0.3-0.5-0.7-0.7-1L60.2,20.8L49.8,35.1c-0.2,0.3-0.5,0.7-0.7,1c-5.4,8-7.8,17.8-6.5,27.4l2.7,22.3l0,0c0,0,0,0.1,0,0.1
				c0,4.8,6.8,8.8,15.1,8.8c8.3,0,15.1-4,15.1-8.8v-0.1l0,0L78.1,63.5z"/>
			
				<linearGradient id="SVGID_00000148638298934987019750000002469359579042833069_" gradientUnits="userSpaceOnUse" x1="-482.1053" y1="262.1979" x2="-463.3965" y2="254.6211" gradientTransform="matrix(1 -1.570796e-03 -1.570796e-03 -1 535.9563 289.5432)">
				<stop  offset="0" style="stop-color:#5277F7"/>
				<stop  offset="4.000000e-02" style="stop-color:#547EF8"/>
				<stop  offset="9.000000e-02" style="stop-color:#5993FA"/>
				<stop  offset="0.15" style="stop-color:#60B4FD"/>
				<stop  offset="0.19" style="stop-color:#66CCFF"/>
				<stop  offset="0.34" style="stop-color:#5277F7"/>
				<stop  offset="0.62" style="stop-color:#5A99FA"/>
				<stop  offset="0.85" style="stop-color:#5FAEFC"/>
				<stop  offset="1" style="stop-color:#61B6FD"/>
			</linearGradient>
			<path style="fill:url(#SVGID_00000148638298934987019750000002469359579042833069_);" d="M70.7,35.1L60.2,20.8L49.8,35.1
				c-0.1,0.1-0.1,0.2-0.2,0.2c1.8,2.4,5.9,4,10.6,4c4.7,0,8.8-1.7,10.6-4L70.7,35.1z"/>
			
				<linearGradient id="SVGID_00000016033352728579322360000005730584558417347469_" gradientUnits="userSpaceOnUse" x1="-467.1131" y1="263.1685" x2="-491.2808" y2="251.3408" gradientTransform="matrix(1 -1.570796e-03 -1.570796e-03 -1 535.9563 289.5432)">
				<stop  offset="0" style="stop-color:#5277F7"/>
				<stop  offset="4.000000e-02" style="stop-color:#547EF8"/>
				<stop  offset="9.000000e-02" style="stop-color:#5993FA"/>
				<stop  offset="0.15" style="stop-color:#60B4FD"/>
				<stop  offset="0.19" style="stop-color:#66CCFF"/>
				<stop  offset="0.34" style="stop-color:#5277F7"/>
				<stop  offset="0.35" style="stop-color:#5379F7"/>
				<stop  offset="0.46" style="stop-color:#5A97FA"/>
				<stop  offset="0.57" style="stop-color:#5FAEFC"/>
				<stop  offset="0.69" style="stop-color:#63BFFE"/>
				<stop  offset="0.83" style="stop-color:#65C9FF"/>
				<stop  offset="1" style="stop-color:#66CCFF"/>
			</linearGradient>
			<path style="opacity:0.3;fill:url(#SVGID_00000016033352728579322360000005730584558417347469_);enable-background:new    ;" d="
				M70.7,35.1L60.2,20.8L49.8,35.1c-0.1,0.1-0.1,0.2-0.2,0.2c1.8,2.4,5.9,4,10.6,4c4.7,0,8.8-1.7,10.6-4L70.7,35.1z"/>
			
				<radialGradient id="SVGID_00000069392903347763012470000016841640470166704820_" cx="-475.9919" cy="3423.0312" r="25.1846" gradientTransform="matrix(1 0 0 -1.6 541.87 5534.04)" gradientUnits="userSpaceOnUse">
				<stop  offset="0.53" style="stop-color:#FFFFFF"/>
				<stop  offset="0.71" style="stop-color:#FAFBFF"/>
				<stop  offset="0.92" style="stop-color:#ECEFFF"/>
				<stop  offset="1" style="stop-color:#E5E9FF"/>
			</radialGradient>
			<path style="opacity:0.5;fill:url(#SVGID_00000069392903347763012470000016841640470166704820_);enable-background:new    ;" d="
				M78.1,63.5c1.2-9.6-1.2-19.4-6.6-27.4c-0.2-0.3-0.5-0.7-0.7-1L60.2,20.8L49.8,35.1c-0.2,0.3-0.5,0.7-0.7,1
				c-5.4,8-7.8,17.8-6.5,27.4l2.7,22.3l0,0c0,0,0,0.1,0,0.1c0,4.8,6.8,8.8,15.1,8.8c8.3,0,15.1-4,15.1-8.8v-0.1l0,0L78.1,63.5z"/>
			
				<linearGradient id="SVGID_00000028298951722605292260000011912341248690147262_" gradientUnits="userSpaceOnUse" x1="-488.4227" y1="233.4559" x2="-478.774" y2="216.7426" gradientTransform="matrix(1 -1.570796e-03 -1.570796e-03 -1 535.9563 289.5432)">
				<stop  offset="0" style="stop-color:#676FAE"/>
				<stop  offset="5.000000e-02" style="stop-color:#757CB8"/>
				<stop  offset="0.11" style="stop-color:#8B92C8"/>
				<stop  offset="0.23" style="stop-color:#AFB6E5"/>
				<stop  offset="0.35" style="stop-color:#949BCF"/>
				<stop  offset="0.38" style="stop-color:#8D94C9"/>
				<stop  offset="0.55" style="stop-color:#5E67A8"/>
				<stop  offset="0.61" style="stop-color:#616AAA"/>
				<stop  offset="0.67" style="stop-color:#6C75B2"/>
				<stop  offset="0.72" style="stop-color:#7E86BF"/>
				<stop  offset="0.78" style="stop-color:#979ED1"/>
				<stop  offset="0.78" style="stop-color:#979ED1"/>
				<stop  offset="1" style="stop-color:#7179B5"/>
			</linearGradient>
			<path style="fill:url(#SVGID_00000028298951722605292260000011912341248690147262_);" d="M58,69.4c0,2.1-0.7,3.6-1.9,4.3L55,74.5
				c-1.2,0.7-0.4-0.9-2.3-1.9c-3.7-2.2-6.7-7.4-6.7-11.6c0-2.1-1.9-2.1-0.8-2.8l1.4-0.8c1.2-0.7,2.9-0.5,4.7,0.5
				C55,60,58,65.2,58,69.4z"/>
			
				<linearGradient id="SVGID_00000133518866770551098630000008716570494439440816_" gradientUnits="userSpaceOnUse" x1="-492.2517" y1="223.3236" x2="-478.7955" y2="223.3236" gradientTransform="matrix(0.9948 -3.758576e-03 -3.758576e-03 -0.9948 535.6673 286.6674)">
				<stop  offset="4.000000e-02" style="stop-color:#929AD6"/>
				<stop  offset="0.36" style="stop-color:#AFB6E5"/>
				<stop  offset="0.61" style="stop-color:#949CD4"/>
				<stop  offset="1" style="stop-color:#646EB5"/>
			</linearGradient>
			<path style="fill:url(#SVGID_00000133518866770551098630000008716570494439440816_);" d="M45.2,58.2c2.6-1.5,6.9,0.9,9.5,5.4
				s2.7,9.4,0.1,11c-2.6,1.5-6.9-0.9-9.5-5.4C42.6,64.6,42.6,59.7,45.2,58.2z"/>
			
				<linearGradient id="SVGID_00000029041394787415054640000013521681075287524760_" gradientUnits="userSpaceOnUse" x1="1228.8002" y1="2299.0786" x2="1235.8341" y2="2287.8547" gradientTransform="matrix(0.88 -0.48 -0.48 -0.88 67.6124 2676.7896)">
				<stop  offset="0.1" style="stop-color:#45108A"/>
				<stop  offset="1" style="stop-color:#7C1DC9"/>
			</linearGradient>
			<path style="fill:url(#SVGID_00000029041394787415054640000013521681075287524760_);" d="M55.4,69.5c0,3.5-2.4,4.9-5.5,3.1
				c-3.2-2.1-5.3-5.6-5.5-9.4c0-3.5,2.4-4.9,5.5-3.1C53.2,62.2,55.2,65.7,55.4,69.5z"/>
			
				<linearGradient id="SVGID_00000175298753067383904070000007780986212553412740_" gradientUnits="userSpaceOnUse" x1="-490.9249" y1="231.8153" x2="-483.8757" y2="222.9617" gradientTransform="matrix(1 -1.570796e-03 -1.570796e-03 -1 535.9563 289.5432)">
				<stop  offset="0" style="stop-color:#5277F7"/>
				<stop  offset="1" style="stop-color:#000000"/>
			</linearGradient>
			<path style="fill:url(#SVGID_00000175298753067383904070000007780986212553412740_);" d="M54.3,67.8c0,2.6-1.8,3.7-4.1,2.4
				c-2.4-1.6-4-4.2-4.1-7.1c0-2.6,1.8-3.7,4.1-2.4C52.6,62.2,54.1,64.9,54.3,67.8z"/>
			
				<linearGradient id="SVGID_00000013880046278921339940000004845977817238247302_" gradientUnits="userSpaceOnUse" x1="-483.3375" y1="216.4312" x2="-490.9525" y2="229.6122" gradientTransform="matrix(1 -1.570796e-03 -1.570796e-03 -1 535.9563 289.5432)">
				<stop  offset="0" style="stop-color:#676FAE"/>
				<stop  offset="5.000000e-02" style="stop-color:#757CB8"/>
				<stop  offset="0.11" style="stop-color:#8B92C8"/>
				<stop  offset="0.23" style="stop-color:#AFB6E5"/>
				<stop  offset="0.35" style="stop-color:#949BCF"/>
				<stop  offset="0.38" style="stop-color:#8D94C9"/>
				<stop  offset="0.55" style="stop-color:#5E67A8"/>
				<stop  offset="0.61" style="stop-color:#616AAA"/>
				<stop  offset="0.67" style="stop-color:#6C75B2"/>
				<stop  offset="0.72" style="stop-color:#7E86BF"/>
				<stop  offset="0.78" style="stop-color:#979ED1"/>
				<stop  offset="0.78" style="stop-color:#979ED1"/>
				<stop  offset="1" style="stop-color:#7179B5"/>
			</linearGradient>
			<path style="fill:url(#SVGID_00000013880046278921339940000004845977817238247302_);" d="M51,72.2c-3.2-2.1-5.3-5.6-5.5-9.4
				c0-1.6,0.5-2.8,1.4-3.4c-1.5,0.3-2.5,1.6-2.4,3.8c0.2,3.8,2.3,7.3,5.5,9.4c1.6,0.9,3.1,1,4.1,0.2C53,73,51.9,72.7,51,72.2z"/>
			
				<radialGradient id="SVGID_00000016790204231488597580000005916876282217747386_" cx="-484.3316" cy="224.1231" r="7.2175" gradientTransform="matrix(1 -1.570796e-03 -1.570796e-03 -1 535.9563 289.5432)" gradientUnits="userSpaceOnUse">
				<stop  offset="0" style="stop-color:#FFFFFF"/>
				<stop  offset="1" style="stop-color:#000000"/>
			</radialGradient>
			<path style="fill:url(#SVGID_00000016790204231488597580000005916876282217747386_);" d="M50.1,58.4c-1.3-0.8-3-1-4.5-0.6
				c1.5-0.3,3,0,4.2,0.8c3.7,2.1,6.8,7.3,6.8,11.6c0,2.2-1,3.8-2.3,4.4c1.4-0.5,2.6-2.1,2.6-4.6C56.9,65.8,53.9,60.6,50.1,58.4z"/>
			
				<linearGradient id="SVGID_00000012458927317367882780000016421699778994041228_" gradientUnits="userSpaceOnUse" x1="-494.1303" y1="186.1947" x2="-484.8715" y2="214.537" gradientTransform="matrix(1 -1.570796e-03 -1.570796e-03 -1 535.9563 289.5432)">
				<stop  offset="0" style="stop-color:#4666D4"/>
				<stop  offset="0.33" style="stop-color:#4E72EC"/>
				<stop  offset="0.46" style="stop-color:#5277F7"/>
				<stop  offset="0.5" style="stop-color:#537DF8"/>
				<stop  offset="0.55" style="stop-color:#578DF9"/>
				<stop  offset="0.61" style="stop-color:#5EA8FC"/>
				<stop  offset="0.67" style="stop-color:#66CCFF"/>
				<stop  offset="0.8" style="stop-color:#5277F7"/>
			</linearGradient>
			<path style="fill:url(#SVGID_00000012458927317367882780000016421699778994041228_);" d="M49.2,92.1l-7.9,15.2l-1.6-0.9v-6.4
				c0-1,0.2-2,0.5-2.9l4.1-12.6c0.8-2.7,2.6-4.9,4.9-6.5l0,0l1.5,0.9L49.2,92.1z"/>
			
				<linearGradient id="SVGID_00000182520304835298048390000001376103340098913169_" gradientUnits="userSpaceOnUse" x1="35.1458" y1="18.4257" x2="62.4177" y2="39.8334" gradientTransform="matrix(1 0 0 -1 0 120)">
				<stop  offset="1.000000e-02" style="stop-color:#BB6DF3"/>
				<stop  offset="0.43" style="stop-color:#5277F7"/>
				<stop  offset="1" style="stop-color:#61C2F2"/>
			</linearGradient>
			<path style="fill:url(#SVGID_00000182520304835298048390000001376103340098913169_);" d="M50.8,93l-9.5,14.3v-6.4
				c0-1,0.2-2,0.5-2.9l4.1-12.6c0.8-2.7,2.6-4.9,4.9-6.5l0,0L50.8,93z"/>
			
				<radialGradient id="SVGID_00000165919206135949893730000002608308485832922000_" cx="-1052.2686" cy="778.6799" r="11.9119" gradientTransform="matrix(0.89 -1.242674e-03 -1.242674e-03 -0.89 988.6312 781.6336)" gradientUnits="userSpaceOnUse">
				<stop  offset="0" style="stop-color:#FFFFFF"/>
				<stop  offset="1" style="stop-color:#000000"/>
			</radialGradient>
			<path style="fill:url(#SVGID_00000165919206135949893730000002608308485832922000_);" d="M41.4,101c0-1,0.2-2,0.5-2.9L46,85.5
				c0.8-2.5,2.4-4.7,4.6-6.3v-0.4l0,0c-2.3,1.5-4.1,3.8-4.9,6.5l-4,12.6c-0.3,0.9-0.5,1.9-0.5,2.9v6.4l0.3-0.4V101z"/>
			
				<linearGradient id="SVGID_00000076593845956696922630000003761818285109325704_" gradientUnits="userSpaceOnUse" x1="-459.3434" y1="195.1675" x2="-464.3895" y2="210.107" gradientTransform="matrix(1 -1.570796e-03 -1.570796e-03 -1 535.9563 289.5432)">
				<stop  offset="0" style="stop-color:#4666D4"/>
				<stop  offset="0.33" style="stop-color:#4E72EC"/>
				<stop  offset="0.46" style="stop-color:#5277F7"/>
				<stop  offset="0.5" style="stop-color:#537DF8"/>
				<stop  offset="0.55" style="stop-color:#578DF9"/>
				<stop  offset="0.61" style="stop-color:#5EA8FC"/>
				<stop  offset="0.67" style="stop-color:#66CCFF"/>
				<stop  offset="0.8" style="stop-color:#5277F7"/>
			</linearGradient>
			<path style="fill:url(#SVGID_00000076593845956696922630000003761818285109325704_);" d="M71.5,92l8,15.2l1.6-0.9v-6.4
				c0-1-0.2-2-0.5-2.9l-4.2-12.6c-0.8-2.7-2.6-4.9-4.9-6.4l0,0L70,78.8L71.5,92z"/>
			
				<linearGradient id="SVGID_00000164473126921119346830000014915577981081610402_" gradientUnits="userSpaceOnUse" x1="1240.2048" y1="2244.6633" x2="1240.587" y2="2284.6956" gradientTransform="matrix(0.88 -0.48 -0.48 -0.88 67.6124 2676.7896)">
				<stop  offset="1.000000e-02" style="stop-color:#BB6DF3"/>
				<stop  offset="0.43" style="stop-color:#5277F7"/>
				<stop  offset="1" style="stop-color:#61C2F2"/>
			</linearGradient>
			<path style="fill:url(#SVGID_00000164473126921119346830000014915577981081610402_);" d="M69.9,93l9.6,14.2v-6.4
				c0-1-0.2-2-0.5-2.9l-4.2-12.6c-0.8-2.7-2.6-4.9-4.9-6.4l0,0L69.9,93z"/>
			
				<radialGradient id="SVGID_00000095315436107009740890000008367994273854904210_" cx="-339.0946" cy="161.5804" r="10.5892" gradientTransform="matrix(1 0 0 -1 0 120)" gradientUnits="userSpaceOnUse">
				<stop  offset="0" style="stop-color:#FFFFFF"/>
				<stop  offset="1" style="stop-color:#000000"/>
			</radialGradient>
			<path style="fill:url(#SVGID_00000095315436107009740890000008367994273854904210_);" d="M79.2,97.9L75,85.3
				c-0.8-2.7-2.6-4.9-4.9-6.4l0,0v0.1c2.1,1.5,3.6,3.7,4.4,6.1l4.1,12.6c0.3,0.9,0.5,1.9,0.5,2.9v5.9l0.5,0.8v-6.4
				C79.6,99.8,79.5,98.8,79.2,97.9z"/>
		</g>
	</g>
</g>
</svg>
